<svg id="Calque_1" data-name="Calque 1" xmlns="http://www.w3.org/2000/svg" viewBox="0 0 87.38 110.5"><defs><style>.cls-1{fill:#60a2e6;}.cls-2{fill:#fff;}.cls-3{fill:#e4242a;}</style></defs><path class="cls-1" d="M257.05,331.26c13.29-12.27,30-11.24,32.95-11s19.38,1.84,30.85,16.13a43.16,43.16,0,0,1-25.25,69.67c-19.13,3.74-40.49-6-48.92-25.37A44.14,44.14,0,0,1,257.05,331.26Z" transform="translate(-243.14 -296.34)"/><circle class="cls-2" cx="26.88" cy="56.36" r="10.87"/><path class="cls-3" d="M266.05,345.06" transform="translate(-243.14 -296.34)"/><circle class="cls-2" cx="58.69" cy="56.36" r="10.87"/><path class="cls-1" d="M255.56,306.27c-.61,13.25,62.15,13.25,61.54,0C317.71,293,255,293,255.56,306.27Zm10.86-2.3c-.77-6.31,40.6-6.31,39.83,0C307,310.29,265.64,310.29,266.42,304Z" transform="translate(-243.14 -296.34)"/></svg>