<svg viewBox="0 0 87.38 110.5" xmlns="http://www.w3.org/2000/svg"><path d="m257.05 331.26c13.29-12.27 30-11.24 32.95-11s19.38 1.84 30.85 16.13a43.16 43.16 0 0 1 -25.25 69.67c-19.13 3.74-40.49-6-48.92-25.37a44.14 44.14 0 0 1 10.37-49.43z" fill="#60a2e6" transform="translate(-243.14 -296.34)"/><circle cx="26.88" cy="56.36" fill="#fff" r="10.87"/><circle cx="58.69" cy="56.36" fill="#fff" r="10.87"/><path d="m255.56 306.27c-.61 13.25 62.15 13.25 61.54 0 .61-13.27-62.1-13.27-61.54 0zm10.86-2.3c-.77-6.31 40.6-6.31 39.83 0 .75 6.32-40.61 6.32-39.83.03z" fill="#60a2e6" transform="translate(-243.14 -296.34)"/></svg>