<svg height="60" viewBox="0 0 30 30" width="60" xmlns="http://www.w3.org/2000/svg"><path d="m7 4c-.255875 0-.5120313.0974687-.7070312.2929688l-2 2c-.3910001.391-.3910001 1.0240625 0 1.4140624l7.2929692 7.2929688-7.2929692 7.292969c-.3910001.391-.3910001 1.024062 0 1.414062l2 2c.391.391 1.0240625.391 1.4140624 0l7.2929688-7.292969 7.292969 7.292969c.39.391 1.024062.391 1.414062 0l2-2c.391-.391.391-1.024062 0-1.414062l-7.292969-7.292969 7.292969-7.2929688c.391-.39.391-1.0240624 0-1.4140624l-2-2c-.391-.3910001-1.024062-.3910001-1.414062 0l-7.292969 7.2929692-7.2929688-7.2929692c-.1955-.1955001-.4511562-.2929688-.7070312-.2929688z"/></svg>