<svg id="Calque_1" data-name="Calque 1" xmlns="http://www.w3.org/2000/svg" viewBox="0 0 122.78 108.93"><defs><style>.cls-1{fill:#e62e34;}.cls-2{fill:#050100;}</style></defs><path class="cls-1" d="M346.9,337.74h0a2.8,2.8,0,0,0,.34-.44,28.24,28.24,0,0,0,3.72-7.5c3.39-11.48-5.26-25-16.36-25.37,4.51,7.42,4.45,14.17-1.88,19.75-14-8.17-29.5-8.46-43.35-.91a85.4,85.4,0,0,1-6.51-7.57c-4.52-5.83-4.28-9.77.53-15.45,1.05-1.24,2.77-2,3.21-4.2-10.35,1.38-16.92,7.06-20.9,15.94-4.13,9.19.75,16.22,6,23,.83,1.09,1.51,2,2.1,2.67-6.8,10.55-8.41,22.21-5.63,34.8,1.17,5.25,3.88,9.74,6.66,14.19-.61.19-1.22.37-1.84.51-5.62,1.3-11.15,3.39-17.07,2.54-6.94-1-8.59-3.72-6.2-10.19a62.32,62.32,0,0,1,7.68-14.41c2.62-3.67,2-6.51-.67-9.74-3.31-4.07-7.36-7.38-11.56-11.38l8-1.53c-7.21-4.82-14.34-5-22.13-4.16l10.5,15.05c1.38-2.85,0-5.47,1.5-7.75,4.55,3,7.94,6.75,11.23,10.67,2.53,3,2.59,5.33-.29,8.49-4.89,5.36-9.33,11.18-10.84,18.63-.94,4.71.27,7.8,5.15,9.63,10.88,4.09,21.5,1.87,32.53.39,11.15,9.79,24.15,13.61,38.65,10.45C349.41,397.35,363.12,363.83,346.9,337.74Zm-48.49,31.7c-11-.64-18.53-10.22-18.47-22.43,0-6.61,1.56-8,8.3-7.12a20.14,20.14,0,0,1,14.46,8.58,28.1,28.1,0,0,1,4.71,10.28C309.82,370,310.71,370.16,298.41,369.44Zm33.38,0c-2.88.42-6.8,2-8.51-.36-2-2.75-.57-6.71.82-9.91,3.28-7.5,9.48-11.45,17.29-12.2,6-.58,3.28,5.11,4.56,7.48C345.91,362.43,340.35,368.25,331.79,369.48Z" transform="translate(-231.01 -296.05)"/><path class="cls-2" d="M279.94,347c0-6.61,1.56-8,8.3-7.12a20.14,20.14,0,0,1,14.46,8.58,28.1,28.1,0,0,1,4.71,10.28c2.41,11.23,3.3,11.41-9,10.69C287.44,368.8,279.88,359.22,279.94,347Z" transform="translate(-231.01 -296.05)"/><path class="cls-2" d="M346,354.49a16.18,16.18,0,0,1-2.05,7.59c-3.22,5.41-9.09,7-12.11,7.4s-6.8,2-8.51-.36c-2-2.75-.57-6.71.82-9.91,3.28-7.5,9.48-11.45,17.29-12.2a4.1,4.1,0,0,1,3.22.72C346.38,349.13,346.14,352.08,346,354.49Z" transform="translate(-231.01 -296.05)"/></svg>