<svg viewBox="0 0 511.54 510.46" xmlns="http://www.w3.org/2000/svg"><g stroke="#1d1d1b" stroke-miterlimit="10"><ellipse cx="255.77" cy="255.23" fill="#fff" rx="250.27" ry="249.73" stroke-width="11"/><path d="m351.4 242.85v187.58" fill="none" stroke-width="35"/><path d="m306.16 161.61h34.39v90q.3 14.27 13.41 21.74 12.8 7.86 32.92 7.85t33.23-7.85q12.79-7.47 13.11-21.74v-90h34.38v92.25q-.62 22-23.22 34.94-22.75 13.31-57.5 13.49-34.12-.19-57-13.48-23.39-12.9-23.69-34.89z" fill="#1d1d1b" stroke-width=".75" transform="translate(-34 -11.97)"/><path d="m262.86 149.62h51.47l-25.74-47.45z" fill="#1d1d1b" stroke-width="2"/><path d="m391 149.62h51.47l-25.73-47.45z" fill="#1d1d1b" stroke-width="2"/><path d="m325.66 242.84h51.47l-25.73-47.44z" fill="#1d1d1b" stroke-width="2"/><path d="m149 137.29a277 277 0 0 1 59-5.95c30.36 0 52.6 9.16 66.72 25.65 13.07 14.66 20.83 37.11 20.83 64.6 0 27.94-6.35 49.93-18.36 66-16.24 22.44-42.71 33.9-72.72 33.9-9.18 0-17.65-.46-24.72-2.75v123.66h-30.75zm30.71 148.89c6.71 2.29 15.18 3.21 25.42 3.21 37.07 0 59.67-23.37 59.67-66 0-40.77-22.24-60.47-56.14-60.47-13.41 0-23.65 1.37-28.95 3.2z" fill="#1d1d1b" stroke-width="7" transform="translate(-34 -11.97)"/><ellipse cx="177.09" cy="95.51" fill="#1d1d1b" rx="71.41" ry="10.47" stroke-width="9"/></g><ellipse cx="176.86" cy="92.92" fill="#fff" rx="59.23" ry="6.14"/></svg>