<svg id="Calque_1" data-name="Calque 1" xmlns="http://www.w3.org/2000/svg" viewBox="0 0 511.54 510.46"><defs><style>.cls-1,.cls-4,.cls-5,.cls-6{fill:#1d1d1b;}.cls-1,.cls-2,.cls-3,.cls-4,.cls-5,.cls-6{stroke:#1d1d1b;stroke-miterlimit:10;}.cls-1{stroke-width:2px;}.cls-2,.cls-7{fill:#fff;}.cls-2{stroke-width:11px;}.cls-3{fill:none;stroke-width:35px;}.cls-4{stroke-width:0.75px;}.cls-5{stroke-width:7px;}.cls-6{stroke-width:9px;}</style></defs><path class="cls-1" d="M322.6,161.59" transform="translate(-34 -11.97)"/><path class="cls-1" d="M450.74,161.59" transform="translate(-34 -11.97)"/><ellipse class="cls-2" cx="255.77" cy="255.23" rx="250.27" ry="249.73"/><line class="cls-3" x1="351.4" y1="242.85" x2="351.4" y2="430.43"/><path class="cls-4" d="M306.16,161.61h34.39v90q.3,14.27,13.41,21.74,12.8,7.86,32.92,7.85t33.23-7.85q12.79-7.47,13.11-21.74v-90H467.6v92.25q-.62,22-23.22,34.94-22.75,13.31-57.5,13.49-34.12-.19-57-13.48-23.39-12.9-23.69-34.89Z" transform="translate(-34 -11.97)"/><polygon class="cls-1" points="262.86 149.62 314.33 149.62 288.59 102.17 262.86 149.62"/><polygon class="cls-1" points="391 149.62 442.47 149.62 416.74 102.17 391 149.62"/><polygon class="cls-1" points="325.66 242.84 377.13 242.84 351.4 195.4 325.66 242.84"/><path class="cls-5" d="M149,137.29a277,277,0,0,1,59-5.95c30.36,0,52.6,9.16,66.72,25.65,13.07,14.66,20.83,37.11,20.83,64.6,0,27.94-6.35,49.93-18.36,66-16.24,22.44-42.71,33.9-72.72,33.9-9.18,0-17.65-.46-24.72-2.75V442.4H149Zm30.71,148.89c6.71,2.29,15.18,3.21,25.42,3.21,37.07,0,59.67-23.37,59.67-66,0-40.77-22.24-60.47-56.14-60.47-13.41,0-23.65,1.37-28.95,3.2Z" transform="translate(-34 -11.97)"/><ellipse class="cls-6" cx="177.09" cy="95.51" rx="71.41" ry="10.47"/><ellipse class="cls-7" cx="176.86" cy="92.92" rx="59.23" ry="6.14"/></svg>